<svg xmlns="http://www.w3.org/2000/svg" enable-background="new 0 0 24 24" viewBox="0 0 24 24" id="box"><path fill="#0A0A0A" d="M20.4896851,7.2872925c-0.0048828-0.0623169-0.0209351-0.1206665-0.0482178-0.177063c-0.0082397-0.0169678-0.0123291-0.0340576-0.0224609-0.0499878c-0.0391846-0.0621948-0.0886841-0.1184692-0.1553345-0.1598511l-8-4.9589844c-0.1616821-0.0996094-0.3656616-0.0996094-0.5273438,0l-8,4.9589844c-0.0136108,0.0084229-0.020813,0.0238647-0.0335083,0.0335083C3.6665649,6.9614258,3.6358643,6.9922485,3.6083374,7.0285034C3.5986328,7.0412598,3.5831909,7.0485229,3.574707,7.0621948c-0.006958,0.0112915-0.0072632,0.024231-0.0132446,0.0358276C3.5462036,7.1271973,3.5366821,7.1576538,3.5274048,7.1898193c-0.0094604,0.0332031-0.0176392,0.0651245-0.0200195,0.098938C3.5064087,7.3014526,3.5,7.3122559,3.5,7.3251953v9.3496094c-0.000061,0.1729736,0.0893555,0.3336182,0.2363281,0.4248047l8,4.9589844c0.0036011,0.0022583,0.0083618,0.0012817,0.0120239,0.003418c0.00354,0.0020752,0.0048828,0.0062866,0.0084839,0.0083008C11.8309937,22.1121826,11.9147949,22.1340332,12,22.1337891c0.0852051,0.0002441,0.1690063-0.0216064,0.2431641-0.0634766c0.0036011-0.0020142,0.0049438-0.0062256,0.0084839-0.0083008c0.0036621-0.0021362,0.0084229-0.0011597,0.0120239-0.003418l8-4.9589844c0.1468506-0.0913086,0.2362061-0.2518921,0.2363281-0.4248047V7.3251953C20.5,7.3116455,20.4907837,7.3006592,20.4896851,7.2872925z M11.5,20.7353516l-7-4.3388672V8.2236328l7,4.3378906V20.7353516z M12,11.6953125l-0.4055176-0.2513428L4.9492188,7.3251953L12,2.9541016l7.0507812,4.3710938l-5.1820679,3.211853L12,11.6953125z M19.5,16.3964844l-7,4.3388672v-8.1738281l7-4.3378906V16.3964844z"></path></svg>