<svg xmlns="http://www.w3.org/2000/svg" enable-background="new 0 0 24 24" viewBox="0 0 24 24" id="briefcase">  <path fill="#0A0A0A" d="M21.5,6H17V4.5c-0.0012817-1.380188-1.119812-2.4987183-2.5-2.5h-5C8.119812,2.0012817,7.0012817,3.119812,7,4.5V6H2.4993896C2.2234497,6.0001831,1.9998169,6.223999,2,6.5v5c0.0007324,0.8156738,0.397522,1.53302,1.0021362,1.9893188C3.0020752,13.493103,3,13.4962158,3,13.5v6c0.0012817,1.380188,1.119812,2.4987183,2.5,2.5h13c1.380188-0.0012817,2.4987183-1.119812,2.5-2.5v-6c0-0.0037842-0.0020752-0.006897-0.0021362-0.0106812C21.602478,13.03302,21.9992676,12.3156738,22,11.5V6.4993896C21.9998169,6.2234497,21.776001,5.9998169,21.5,6z M8,4.5C8.0009155,3.671936,8.671936,3.0009155,9.5,3h5c0.828064,0.0009155,1.4990845,0.671936,1.5,1.5V6H8V4.5z M20,19.5c-0.0009155,0.828064-0.671936,1.4990845-1.5,1.5h-13c-0.828064-0.0009155-1.4990845-0.671936-1.5-1.5v-5.5508423C4.1615601,13.9821167,4.3287354,13.9998169,4.5,14h3v1.0005493C7.5001831,15.2765503,7.723999,15.5001831,8,15.5h0.0006104C8.2765503,15.4998169,8.5001831,15.276001,8.5,15v-1h7v1.0005493C15.5001831,15.2765503,15.723999,15.5001831,16,15.5h0.0006104C16.2765503,15.4998169,16.5001831,15.276001,16.5,15v-1h3c0.1712646-0.0001831,0.3384399-0.0178833,0.5-0.0508423V19.5z M21,11.5c-0.0009155,0.828064-0.671936,1.4990845-1.5,1.5h-3v-2c0-0.276123-0.223877-0.5-0.5-0.5s-0.5,0.223877-0.5,0.5v2h-7v-2c0-0.276123-0.223877-0.5-0.5-0.5S7.5,10.723877,7.5,11v2h-3c-0.828064-0.0009155-1.4990845-0.671936-1.5-1.5V7h18V11.5z"></path></svg>