<svg xmlns="http://www.w3.org/2000/svg" enable-background="new 0 0 24 24" viewBox="0 0 24 24" id="building"><path fill="#0A0A0A" d="M13.5,11h2c0.3,0,0.5-0.2,0.5-0.5S15.8,10,15.5,10h-2c-0.3,0-0.5,0.2-0.5,0.5S13.2,11,13.5,11z M21.5,21H20V2.5c0,0,0,0,0,0C20,2.2,19.8,2,19.5,2h-15c0,0,0,0,0,0C4.2,2,4,2.2,4,2.5V21H2.5C2.2,21,2,21.2,2,21.5S2.2,22,2.5,22h2h10h0h5c0,0,0,0,0,0h2c0.3,0,0.5-0.2,0.5-0.5S21.8,21,21.5,21z M14,21h-4v-6h4V21z M19,21h-4v-6.5c0,0,0,0,0,0c0-0.3-0.2-0.5-0.5-0.5h-5c0,0,0,0,0,0C9.2,14,9,14.2,9,14.5V21H5V3h14V21z M13.5,7h2C15.8,7,16,6.8,16,6.5S15.8,6,15.5,6h-2C13.2,6,13,6.2,13,6.5S13.2,7,13.5,7z M8.5,11h2c0.3,0,0.5-0.2,0.5-0.5S10.8,10,10.5,10h-2C8.2,10,8,10.2,8,10.5S8.2,11,8.5,11z M8.5,7h2C10.8,7,11,6.8,11,6.5S10.8,6,10.5,6h-2C8.2,6,8,6.2,8,6.5S8.2,7,8.5,7z"></path></svg>