<svg xmlns="http://www.w3.org/2000/svg" enable-background="new 0 0 24 24" viewBox="0 0 24 24" id="edit"><path fill="#0A0A0A" d="M7,12.2578125V16.5c0,0.0001831,0,0.0003662,0,0.0005493C7.0001831,16.7765503,7.223999,17.0001831,7.5,17h4.2421875c0.1326294,0,0.2597656-0.0526733,0.3535156-0.1464844l6.9262085-6.9276733c0.0012817-0.0012207,0.0031128-0.0016479,0.0043335-0.0028687c0.0012817-0.0012817,0.0015869-0.0029907,0.0028076-0.0042725l2.8244629-2.8250122c0,0,0.000061-0.000061,0.0001221-0.0001221c0.1951294-0.1952515,0.1950684-0.5117188-0.0001221-0.7068481l-4.2402344-4.2402344c-0.000061-0.000061-0.0001221-0.0001221-0.0001831-0.0001831c-0.1952515-0.1951294-0.5117188-0.1950684-0.7068481,0.0001831l-9.7597656,9.7578125C7.0526733,11.9980469,7,12.1251831,7,12.2578125z M17.2597656,3.2069702l3.5332642,3.5332642l-2.1209106,2.1213379l-3.5336914-3.5336914L17.2597656,3.2069702z M8,12.4648438l6.4313354-6.4299927l3.5338135,3.5338135L11.5351562,16H8V12.4648438z M21.5,12c-0.276123,0-0.5,0.223877-0.5,0.5V19c-0.0014038,1.1040039-0.8959961,1.9985962-2,2H5c-1.1040039-0.0014038-1.9985962-0.8959961-2-2V5c0.0014038-1.1040039,0.8959961-1.9985962,2-2h6.5C11.776123,3,12,2.776123,12,2.5S11.776123,2,11.5,2H5C3.3438721,2.0018311,2.0018311,3.3438721,2,5v14c0.0018311,1.6561279,1.3438721,2.9981689,3,3h14c1.6561279-0.0018311,2.9981689-1.3438721,3-3v-6.5C22,12.223877,21.776123,12,21.5,12z"></path></svg>