<svg xmlns="http://www.w3.org/2000/svg" enable-background="new 0 0 24 24" viewBox="0 0 24 24" id="package"><path fill="#0A0A0A" d="M19.5,2h-5h-5H9.4994507H4.5C3.119812,2.0012817,2.0012817,3.119812,2,4.5v15c0.0012817,1.380188,1.119812,2.4987183,2.5,2.5h15c1.380188-0.0012817,2.4987183-1.119812,2.5-2.5v-15C21.9987183,3.119812,20.880188,2.0012817,19.5,2z M10,3h4v4.5507812l-1.7167969-1.1767578C12.1998291,6.3168945,12.1010742,6.2862549,12,6.2861328c-0.1010742,0.0001221-0.1998291,0.0307007-0.2832031,0.0878906L10,7.5507812V3z M21,19.5c-0.0009155,0.828064-0.671936,1.4990845-1.5,1.5h-15c-0.828064-0.0009155-1.4990845-0.671936-1.5-1.5v-15C3.0009155,3.671936,3.671936,3.0009155,4.5,3H9v5.5C8.999939,8.6012573,9.0306396,8.7001343,9.0880737,8.7835693c0.1564331,0.227478,0.4676514,0.2850342,0.6951294,0.12854L12,7.3925781l2.2167969,1.5195312C14.3000488,8.9695435,14.3988647,9.0001831,14.5,9c0.0812988-0.0001831,0.161377-0.0199585,0.2333984-0.0576172C14.8973999,8.8557129,15,8.6854858,15,8.5V3h4.5c0.828064,0.0009155,1.4990845,0.671936,1.5,1.5V19.5z"></path></svg>