<svg xmlns="http://www.w3.org/2000/svg" enable-background="new 0 0 24 24" viewBox="0 0 24 24" id="search"><path fill="#0A0A0A" d="M21.8594971,21.1526489l-4.1618652-4.1618652C19.1226807,15.3989258,19.9974976,13.3041992,20,11c0-4.9705811-4.0294189-9-9-9s-9,4.0294189-9,9s4.0294189,9,9,9c2.3041382-0.0025024,4.3988647-0.8771973,5.9906616-2.3021851l4.1618042,4.1618042c0.1937866,0.1871948,0.5009766,0.1871948,0.6947632,0C22.0458374,21.6677856,22.0513306,21.3512573,21.8594971,21.1526489z M11,19c-4.4182739,0-8-3.5817261-8-8s3.5817261-8,8-8c4.4161987,0.0050659,7.9949341,3.5838013,8,8C19,15.4182739,15.4182739,19,11,19z"></path></svg>