<svg xmlns="http://www.w3.org/2000/svg" enable-background="new 0 0 24 24" viewBox="0 0 24 24" id="trash"><path fill="#0A0A0A" d="M20.5,6h-2H16V4.5c-0.0012817-1.380188-1.119812-2.4987183-2.5-2.5h-3C9.119873,2.0014648,8.0014648,3.119873,8,4.5V6H5.5C5.4998169,6,5.4996338,6,5.4993896,6H3.5C3.223877,6,3,6.223877,3,6.5S3.223877,7,3.5,7H5v12.5c0.0014648,1.380127,1.119873,2.4985352,2.5,2.5h9c1.380188-0.0012817,2.4987183-1.119812,2.5-2.5V7h1.5C20.776123,7,21,6.776123,21,6.5S20.776123,6,20.5,6z M9,4.5C9.0009155,3.671936,9.671936,3.0009155,10.5,3h3c0.828064,0.0009155,1.4990845,0.671936,1.5,1.5V6H9V4.5z M18,19.5c-0.0009155,0.828064-0.671936,1.4990845-1.5,1.5h-9c-0.828064-0.0009155-1.4990845-0.671936-1.5-1.5V7h2.5h7h0.0006104H18V19.5z"></path></svg>