<svg xmlns="http://www.w3.org/2000/svg" enable-background="new 0 0 24 24" viewBox="0 0 24 24" id="archive">  <path fill="#0A0A0A" d="M19.5,3h-15C3.119812,3.0012817,2.0012817,4.119812,2,5.5v4c0,0.0001831,0,0.0003662,0,0.0005493C2.0001831,9.7765503,2.223999,10.0001831,2.5,10H4v8.5c0.0012817,1.380188,1.119812,2.4987183,2.5,2.5h11c1.380188-0.0012817,2.4987183-1.119812,2.5-2.5V10h1.5c0.0001831,0,0.0003662,0,0.0006104,0C21.7765503,9.9998169,22.0001831,9.776001,22,9.5v-4C21.9987183,4.119812,20.880188,3.0012817,19.5,3z M19,18.5c-0.0009155,0.828064-0.671936,1.4990845-1.5,1.5h-11c-0.828064-0.0009155-1.4990845-0.671936-1.5-1.5V10h14V18.5z M21,9h-1.5h-15H4.4993896H3V5.5C3.0009155,4.671936,3.671936,4.0009155,4.5,4h15c0.828064,0.0009155,1.4990845,0.671936,1.5,1.5V9z M10,13.5h4c0.276123,0,0.5-0.223877,0.5-0.5s-0.223877-0.5-0.5-0.5h-4c-0.276123,0-0.5,0.223877-0.5,0.5S9.723877,13.5,10,13.5z"></path></svg>