<svg xmlns="http://www.w3.org/2000/svg" enable-background="new 0 0 24 24" viewBox="0 0 24 24" id="cog"><path fill="#0A0A0A" d="M12,8.5c-1.9329834,0-3.5,1.5670166-3.5,3.5s1.5670166,3.5,3.5,3.5c1.9320068-0.0023193,3.4976807-1.5679932,3.5-3.5C15.5,10.0670166,13.9329834,8.5,12,8.5z M12,14.5c-1.3807373,0-2.5-1.1192627-2.5-2.5s1.1192627-2.5,2.5-2.5c1.380127,0.0014648,2.4985352,1.119873,2.5,2.5C14.5,13.3807373,13.3807373,14.5,12,14.5z M21.1582031,10.0253906l-1.8867188-0.6289062c-0.0222168-0.0074463-0.0439453-0.0164185-0.0648804-0.0268555c-0.2470093-0.12323-0.3474121-0.4234009-0.2241821-0.6704102l0.8896484-1.7783203c0.0960083-0.1925659,0.0582275-0.4248657-0.09375-0.5771484l-2.1210938-2.1220703c-0.1524658-0.1516113-0.3845215-0.1893311-0.5771484-0.09375l-1.7792969,0.8896484c-0.0209961,0.010437-0.0426636,0.0194092-0.0648804,0.0268555c-0.2618408,0.0874023-0.5449829-0.0540771-0.6323853-0.315918l-0.6289062-1.8867188C13.90625,2.6377563,13.71521,2.5001831,13.5,2.5h-3c-0.21521-0.0001221-0.40625,0.1376343-0.4741821,0.3417969L9.3969116,4.7285156C9.3518677,4.8665161,9.24823,4.9776001,9.1137085,5.0322266c-0.1335449,0.057373-0.2857666,0.052002-0.414978-0.0146484L6.9204102,4.1279297c-0.1925049-0.0960693-0.4249268-0.0583496-0.5771484,0.09375L4.2216797,6.34375c-0.1522217,0.1521606-0.1900024,0.3846436-0.09375,0.5771484l0.8896484,1.7783203c0.0107422,0.0214233,0.0198975,0.0435791,0.0274658,0.0662842c0.086792,0.2616577-0.0548706,0.5441284-0.3165283,0.6309814l-1.8867188,0.6289062C2.6377563,10.09375,2.5001831,10.28479,2.5,10.5v3c0.0001831,0.21521,0.1377563,0.40625,0.3417969,0.4746094l1.8862305,0.6289062c0.0224609,0.0074463,0.0444336,0.0165405,0.0656128,0.0270996c0.2468872,0.12323,0.347168,0.4232788,0.223938,0.670166l-0.8896484,1.7783203c-0.0962524,0.1925049-0.0584717,0.4249878,0.09375,0.5771484l2.1216431,2.1220703c0.1523438,0.1519165,0.3845825,0.1896362,0.5771484,0.09375l1.7783203-0.8896484c0.1289673-0.067627,0.2816162-0.072998,0.4150391-0.0146484c0.1344604,0.0546265,0.2380981,0.1657104,0.2831421,0.3037109l0.6289062,1.8867188C10.093811,21.3623657,10.2848511,21.500061,10.5,21.5h3c0.21521-0.0001831,0.40625-0.1378174,0.4746094-0.3418579l0.6289062-1.8867188c0.0074463-0.0222168,0.0164185-0.0438843,0.0268555-0.0648804c0.12323-0.2470093,0.4234009-0.3474121,0.6704102-0.2241821l1.7792969,0.8896484c0.192688,0.0950928,0.4244995,0.0574341,0.5771484-0.09375l2.1210938-2.1220703c0.1519775-0.1522217,0.1897583-0.3845825,0.09375-0.5771484l-0.8896484-1.7783203c-0.0651855-0.1295776-0.0705566-0.2811279-0.0146484-0.414978c0.0546265-0.1342773,0.1657715-0.2375488,0.3037109-0.2822266l1.8867188-0.6289062C21.3622437,13.90625,21.4998169,13.71521,21.5,13.5v-3C21.4998169,10.28479,21.3622437,10.09375,21.1582031,10.0253906z M20.5,13.1396484l-1.5449219,0.5146484c-0.0671997,0.0223999-0.1326904,0.0495605-0.1960449,0.0811768c-0.7410889,0.3704224-1.0415649,1.2714844-0.6711426,2.0125732l0.7285156,1.4560547l-1.6113281,1.6123047l-1.4570312-0.7285156c-0.0639648-0.0320435-0.130127-0.0594482-0.197998-0.0820312c-0.7856445-0.2613525-1.6343994,0.1636353-1.895752,0.9492188L13.1396484,20.5h-2.2792969l-0.5151978-1.5449219c-0.0223389-0.0669556-0.0493774-0.1322021-0.0809326-0.1953125c-0.3702393-0.741394-1.2714233-1.0421753-2.0128174-0.671875l-1.4559937,0.7285156l-1.6118164-1.6123047l0.7285156-1.4560547c0.0314941-0.0631104,0.0585327-0.128418,0.0808716-0.1953125c0.2622681-0.7861938-0.1623535-1.6361084-0.9485474-1.8984375L3.5,13.1396484v-2.2792969l1.5449219-0.5145874c0.0666504-0.0222778,0.1317139-0.0492554,0.1945801-0.0806274c0.7416382-0.3701782,1.0427856-1.2714844,0.6726074-2.0131226L5.1835938,6.7958984l1.6118774-1.6123047l1.4559937,0.7285156C8.3145752,5.9436646,8.3798218,5.9707031,8.4467773,5.993042c0.7860718,0.2623901,1.6359863-0.1620483,1.8984375-0.9481201L10.8603516,3.5h2.2792969l0.5147095,1.5449219c0.022583,0.0678711,0.0499878,0.1340332,0.0820312,0.197998c0.3707275,0.7403564,1.2713623,1.039917,2.0117188,0.6691895l1.4569702-0.7285156l1.6113281,1.6123657l-0.7285156,1.4560547c-0.0320435,0.0639038-0.0594482,0.1300659-0.0820312,0.197937c-0.2613525,0.7856445,0.1636353,1.6343384,0.9492188,1.895752L20.5,10.8603516V13.1396484z"></path></svg>