<svg xmlns="http://www.w3.org/2000/svg" enable-background="new 0 0 24 24" viewBox="0 0 24 24" id="times"><path fill="#0A0A0A" d="M17.3534546,16.6465454L12.7069092,12l4.6465454-4.6465454c0.1871948-0.1937256,0.1871948-0.5009155,0-0.6947021c-0.1918335-0.1986084-0.5083618-0.2041016-0.7069702-0.0122681l-4.6465454,4.6465454L7.3534546,6.6465454c-0.1937256-0.1871338-0.5009155-0.1871338-0.6947021,0C6.460144,6.8383789,6.4546509,7.1549072,6.6464844,7.3535156L11.2929688,12l-4.6464844,4.6464844c-0.09375,0.09375-0.1464233,0.2208862-0.1464233,0.3534546C6.5,17.276062,6.723877,17.499939,7,17.5c0.1326294,0.0001221,0.2598267-0.0526123,0.3534546-0.1465454l4.6464844-4.6464844l4.6465454,4.6465454C16.7401123,17.4474487,16.8673706,17.5001831,17,17.5c0.1325073-0.000061,0.2595825-0.0526733,0.3533325-0.1463623C17.548645,17.1583862,17.5487061,16.8417969,17.3534546,16.6465454z"></path></svg>